<svg width="512" height="512" viewBox="0 0 1024 1024" xmlns="http://www.w3.org/2000/svg">
        <g fill="none">
        <rect width="1024" height="1024" fill="none" rx="60"/>
        <path fill="#000000" d="M747.4 535.7c-.4-68.2 30.5-119.6 92.9-157.5c-34.9-50-87.7-77.5-157.3-82.8c-65.9-5.2-138 38.4-164.4 38.4c-27.9 0-91.7-36.6-141.9-36.6C273.1 298.8 163 379.8 163 544.6c0 48.7 8.9 99 26.7 150.8c23.8 68.2 109.6 235.3 199.1 232.6c46.8-1.1 79.9-33.2 140.8-33.2c59.1 0 89.7 33.2 141.9 33.2c90.3-1.3 167.9-153.2 190.5-221.6c-121.1-57.1-114.6-167.2-114.6-170.7zm-105.1-305c50.7-60.2 46.1-115 44.6-134.7c-44.8 2.6-96.6 30.5-126.1 64.8c-32.5 36.8-51.6 82.3-47.5 133.6c48.4 3.7 92.6-21.2 129-63.7z"/>
        </g>
</svg>