<svg xmlns="http://www.w3.org/2000/svg" xmlns:xlink="http://www.w3.org/1999/xlink" viewBox="0 0 20 20" id="design"><defs><linearGradient id="a"><stop offset="0" stop-color="#000092"></stop><stop offset="1" stop-color="#ff00f3"></stop></linearGradient><linearGradient id="b" x1="1.464" x2="17" y1="10.025" y2="10.025" gradientUnits="userSpaceOnUse" xlink:href="#a"></linearGradient></defs><path fill="url(#b)" d="M15.3 1.514a1.49 1.49 0 0 0-1.054.433l-.371.373a.5.5 0 0 0-.043.041l-.186.186a.5.5 0 0 0-.087.111l-.829.905a.5.5 0 0 0-.015.019l-2.713 2.713-4.45-4.45a.99.99 0 0 0-.702-.28.99.99 0 0 0-.704.28l-2.4 2.401a1.018 1.018 0 0 0 0 1.408l.002.002 4.492 4.399-2.761 2.761a.5.5 0 0 0-.354.329l-1.5 4.6a.5.5 0 0 0 .63.63l4.6-1.5a.5.5 0 0 0 .254-.191l2.881-2.881 4.354 4.449.002.002a1.018 1.018 0 0 0 1.408 0l2.4-2.4a1.016 1.016 0 0 0 0-1.407l-4.404-4.404 2.861-2.861a.5.5 0 0 0 .114-.176l.617-.567a.5.5 0 0 0 .002-.002.5.5 0 0 0 .11-.083l.185-.186a.5.5 0 0 0 .047-.047l.367-.367a1.5 1.5 0 0 0 0-2.108l-1.7-1.699a1.485 1.485 0 0 0-1.052-.433zm-.001.972c.117 0 .236.057.347.168l1.7 1.7c.223.223.223.47 0 .693l-.377.379a.5.5 0 0 0-.006.006l-.024.021-.705.645-2.332-2.332.666-.729.385-.383c.112-.111.228-.168.346-.168zm-10.45.07 4.446 4.446-2.346 2.346-.732-.72 1.71-1.71-.99-.99L5.216 7.65l-1.03-1.01.694-.693-.99-.988-.703.703-.729-.713L4.85 2.557zm8.253 2.053.625.625-8.723 8.723-.625-.625 8.723-8.723zm1.615 1.616.719.718-8.723 8.723-.719-.719 8.723-8.722zm-1.674 4.525 4.4 4.4-2.392 2.393-.631-.643 1.687-1.687-.99-.99-1.676 1.677-1.078-1.101.698-.697-.99-.99-.686.685-.688-.701 2.346-2.346zm-9.22 3.48 1.947 1.948-2.56.834-.222-.223.834-2.559z" color="#000" font-family="sans-serif" font-weight="400" overflow="visible" style="line-height:normal;text-indent:0;text-align:start;text-decoration-line:none;text-decoration-style:solid;text-decoration-color:#000;text-transform:none;block-progression:tb;isolation:auto;mix-blend-mode:normal"></path></svg>