<svg xmlns="http://www.w3.org/2000/svg" viewBox="0 0 47.5 47.5" id="music"><defs><clipPath id="a"><path d="M0 38h38V0H0v38Z"></path></clipPath></defs><g fill="#5dadec" clip-path="url(#a)" transform="matrix(1.25 0 0 -1.25 0 47.5)"><path d="m15.182 36.833-6.363-1.301c-.45-.093-.819-.544-.819-1.003V18.672A6.194 6.194 0 0 1 6 19c-2.761 0-5-1.741-5-3.888 0-2.148 2.239-3.889 5-3.889 2.713 0 4.909 1.683 4.986 3.777H11v15.523l4.182.855c.45.093.818.544.818 1.003v3.785c0 .459-.368.759-.818.667M36.182 32.833l-6.363-1.301c-.45-.093-.819-.544-.819-1.003V14.672A6.198 6.198 0 0 1 27 15c-2.761 0-5-1.741-5-3.888 0-2.148 2.239-3.889 5-3.889 2.713 0 4.909 1.683 4.986 3.777H32v15.523l4.182.855c.45.093.818.544.818 1.003v3.785c0 .459-.368.759-.818.667"></path><path d="m24.182 26.832-6.363-1.301c-.45-.093-.819-.544-.819-1.003V8.671a6.194 6.194 0 0 1-2 .328c-2.761 0-5-1.741-5-3.888 0-2.148 2.239-3.889 5-3.889 2.713 0 4.909 1.683 4.986 3.777H20v15.523l4.182.855c.45.093.818.544.818 1.003v3.785c0 .459-.368.759-.818.667"></path></g></svg>