<svg xmlns="http://www.w3.org/2000/svg" data-name="Layer 1" viewBox="0 0 512 512" id="camera">
<path fill="#00acea" d="M483.13,195.34V418.61a42.294,42.294,0,0,1-42.29,42.3H71.16a42.294,42.294,0,0,1-42.29-42.3V195.34a42.285,42.285,0,0,1,42.29-42.29H440.84A42.285,42.285,0,0,1,483.13,195.34Z"></path><rect width="84" height="33" x="325.67" y="120" fill="#fedb41"></rect><path fill="#00efd1" d="M256,199.04A109.52,109.52,0,1,1,146.48,308.56,109.528,109.528,0,0,1,256,199.04Zm65.35,109.52A65.35,65.35,0,1,0,256,373.91,65.352,65.352,0,0,0,321.35,308.56Z"></path><circle cx="256" cy="308.56" r="65.35" fill="#fedb41"></circle><path fill="#00efd1" d="M198,126.16H79.12V51.09H232.88v75.07Z"></path><rect width="103.76" height="25.07" x="104.12" y="76.09" fill="#00acea"></rect><polygon fill="#fedb41" points="198 153 198 153.05 114 153.05 114 153 114 126.16 198 126.16 198 153"></polygon><rect width="65.55" height="37" x="66.75" y="209.18" fill="#f4b844">
</rect></svg>