<svg width="512" height="512" viewBox="0 0 24 24" xmlns="http://www.w3.org/2000/svg">
    <path fill="#000000" d="M9.877 3.153a.15.15 0 0 0-.134-.241l-3.503.37a.15.15 0 0 0-.133.166l.397 3.64a.15.15 0 0 0 .268.075l3.105-4.01Zm7.347 4.01a.15.15 0 0 0 .268-.075l.397-3.64a.15.15 0 0 0-.133-.166l-3.503-.37a.15.15 0 0 0-.134.24l3.105 4.011ZM7.836 8.635a.15.15 0 0 1-.119-.242l4.162-5.376a.15.15 0 0 1 .238 0l4.162 5.376a.15.15 0 0 1-.119.242H7.836Zm1.157 9.625c.068.159-.14.288-.251.158l-6.9-8.035a.15.15 0 0 1 .113-.248h3.452a.15.15 0 0 1 .138.09l3.448 8.036Zm9.595-8.125a.15.15 0 0 0-.137.09l-3.449 8.036c-.067.158.14.287.252.157l6.9-8.035a.15.15 0 0 0-.113-.248h-3.453Zm.262-1.667a.15.15 0 0 0 .149.167h2.78a.15.15 0 0 0 .12-.24l-2.425-3.254a.15.15 0 0 0-.269.073l-.355 3.254ZM4.791 5.214a.15.15 0 0 0-.27-.073L2.098 8.395a.15.15 0 0 0 .12.24h2.78a.15.15 0 0 0 .15-.167L4.79 5.214Zm2.437 5.13a.15.15 0 0 1 .138-.21h9.264c.107 0 .18.11.137.21l-4.631 10.794a.15.15 0 0 1-.276 0L7.228 10.344Z"/>
</svg>