<svg xmlns="http://www.w3.org/2000/svg" width="26" height="26" id="travel"><g fill="#fff" transform="translate(5 -1031.362)"><circle cx="8" cy="1044.362" r="13" fill="#239fdb" fill-rule="evenodd"></circle><path fill="#0b5ecd" d="M11.307 1056.925a13 13 0 0 0 .17-.038 13 13 0 0 0 1.234-.408 13 13 0 0 0 1.185-.531 13 13 0 0 0 1.127-.647 13 13 0 0 0 1.057-.755 13 13 0 0 0 .977-.858 13 13 0 0 0 .886-.951 13 13 0 0 0 .786-1.035 13 13 0 0 0 .68-1.108 13 13 0 0 0 .566-1.17 13 13 0 0 0 .445-1.22 13 13 0 0 0 .32-1.26 13 13 0 0 0 .196-1.285 13 13 0 0 0 .013-.262l-6.99-6.99a1.496 1.496 0 0 0-2.121 0l-2.467 2.465-5.994-1.067-1.414 1.414 3.535 3.536-1.297 1.302-1.181-.248-1.415 1.414 3.536 3.535 6.166 6.167z"></path><path fill="none" stroke="#fff" stroke-linecap="round" stroke-linejoin="round" d="M12.898 1037.966c-.384 0-.767.148-1.06.442l-2.467 2.464-5.995-1.066-1.414 1.414 5.28 1.783-3.041 3.055-1.182-.248-1.414 1.414 2.488 1.047 1.047 2.488 1.416-1.414-.242-1.172 3.055-3.055 1.795 5.27 1.414-1.414-1.061-6.004 2.441-2.441a1.498 1.498 0 0 0 0-2.122 1.496 1.496 0 0 0-1.06-.44z"></path></g></svg>