<svg width="256" height="256"  viewBox="0 0 256 256" xmlns="http://www.w3.org/2000/svg" version="1.1" xmlns:xlink="http://www.w3.org/1999/xlink" xmlns:svgjs="http://svgjs.com/svgjs"><defs id="SvgjsDefs1044"></defs><g id="SvgjsG1045"><svg xmlns="http://www.w3.org/2000/svg" data-name="Layer 1" viewBox="0 0 128 128" width="256" height="256"><path d="M128,55.81A49,49,0,0,0,70.81,7.7,52.89,52.89,0,0,1,77.08,11c.64,0,1.28,0,1.92,0A44.78,44.78,0,0,1,93.38,98.27a2,2,0,0,0-1.3,2.41l3.59,13.62L76.37,101a52.71,52.71,0,0,1-5.51,2.9c1.1.18,2.21.34,3.33.45l23.66,16.28A2,2,0,0,0,99,121h0a2,2,0,0,0,1.84-2.78l-4.42-16.79A48.77,48.77,0,0,0,128,55.81Z" fill="#000000" class="color000 svgShape"></path><path d="M84.63,89.31a2,2,0,0,0-2.9-2.75,45,45,0,0,1-28.78,13.88,2,2,0,0,0-1,.34L32.33,114.3l3.59-13.62a2,2,0,0,0-1.3-2.41A44.84,44.84,0,1,1,94,55.81,44.29,44.29,0,0,1,90.31,73.6,2,2,0,1,0,94,75.2a48.29,48.29,0,0,0,4-19.39,49,49,0,1,0-66.41,45.62l-4.5,17.06a2,2,0,0,0,3.07,2.16l23.66-16.28A49,49,0,0,0,84.63,89.31Z" fill="#000000" class="color000 svgShape"></path><path d="M49,50a2,2,0,0,0,0-4H36V38.27a2,2,0,1,0-4,0V46H19a2,2,0,0,0,0,4h2.81a36,36,0,0,0,8.53,15.48A34.17,34.17,0,0,1,17.47,72a2,2,0,1,0,1.05,3.86,38,38,0,0,0,14.75-7.58A38,38,0,0,0,48,75.84,2,2,0,0,0,49.07,72a34.16,34.16,0,0,1-12.87-6.5A36,36,0,0,0,44.73,50ZM33.27,62.75A32,32,0,0,1,26,50H40.59A32,32,0,0,1,33.27,62.75Z" fill="#000000" class="color000 svgShape"></path><path d="M81,48a2,2,0,0,0-2-2H66.91V42.27a2,2,0,1,0-4,0V46H57a2,2,0,0,0,0,4h5.65a56.69,56.69,0,0,1-11,11.79A2,2,0,0,0,54.12,65a60,60,0,0,0,8.79-8.64V75a2,2,0,1,0,4,0V56.59a119.34,119.34,0,0,0,8.38,13,2,2,0,1,0,3.24-2.34C71.72,57.86,69.16,52.41,68.23,50H79A2,2,0,0,0,81,48Z" fill="#000000" class="color000 svgShape"></path><circle cx="88.25" cy="81.5" r="2" fill="#000000" class="color000 svgShape"></circle></svg></g></svg>