<svg width="6" height="5" viewBox="0 0 6 5" fill="none" xmlns="http://www.w3.org/2000/svg">
<g id="Icon">
<path d="M1.09477 2.6578C0.441176 2.6578 0 2.20284 0 1.52882C0 0.922202 0.506536 0.416687 1.19281 0.416687C1.94444 0.416687 2.5 1.0233 2.5 1.95008C2.5 4.05639 0.964052 4.89892 0 5.00002V4.07324C0.653595 3.95529 1.38889 3.29812 1.42157 2.57355C1.38889 2.5904 1.25817 2.6578 1.09477 2.6578Z" fill="#79819A"/>
<path d="M4.4281 2.6578C3.77451 2.6578 3.33333 2.20284 3.33333 1.52882C3.33333 0.922202 3.83987 0.416687 4.52614 0.416687C5.27778 0.416687 5.83333 1.0233 5.83333 1.95008C5.83333 4.05639 4.29738 4.89892 3.33333 5.00002V4.07324C3.98693 3.95529 4.72222 3.29812 4.7549 2.57355C4.72222 2.5904 4.5915 2.6578 4.4281 2.6578Z" fill="#79819A"/>
</g>
</svg>
