<svg width="10" height="10" viewBox="0 0 10 10" fill="none" xmlns="http://www.w3.org/2000/svg">
<g id="edit/double_quotes_l">
<g id="Icon">
<path d="M6.82187 4.84222C7.47547 4.84222 7.91665 5.29718 7.91665 5.9712C7.91665 6.57782 7.41011 7.08334 6.72383 7.08334C5.9722 7.08334 5.41665 6.47672 5.41665 5.54994C5.41665 3.44363 6.95259 2.6011 7.91665 2.5L7.91665 3.42678C7.26305 3.54473 6.52776 4.2019 6.49508 4.92647C6.52776 4.90962 6.65848 4.84222 6.82187 4.84222Z" fill="#79819A"/>
<path d="M3.48854 4.84222C4.14214 4.84222 4.58331 5.29718 4.58331 5.9712C4.58331 6.57782 4.07678 7.08334 3.3905 7.08334C2.63887 7.08334 2.08331 6.47672 2.08331 5.54994C2.08331 3.44363 3.61926 2.6011 4.58331 2.5V3.42678C3.92972 3.54473 3.19442 4.2019 3.16174 4.92647C3.19442 4.90962 3.32514 4.84222 3.48854 4.84222Z" fill="#79819A"/>
</g>
</g>
</svg>
