<svg width="6" height="7" viewBox="0 0 6 7" fill="none" xmlns="http://www.w3.org/2000/svg">
<g id="basic/location">
<path id="Icon" d="M3 5.75001C2.68423 5.48067 2.39155 5.18539 2.125 4.86726C1.725 4.38951 1.25 3.67801 1.25 3.00001C1.24965 2.2919 1.67606 1.65336 2.33027 1.38236C2.98447 1.11136 3.73752 1.26132 4.238 1.76226C4.56712 2.08991 4.75148 2.53561 4.75001 3.00001C4.75001 3.67801 4.275 4.38951 3.875 4.86726C3.60845 5.18539 3.31577 5.48067 3 5.75001ZM3 2.25001C2.73205 2.25001 2.48446 2.39296 2.35048 2.62501C2.21651 2.85706 2.21651 3.14296 2.35048 3.37501C2.48446 3.60706 2.73205 3.75001 3 3.75001C3.41421 3.75001 3.75 3.41423 3.75 3.00001C3.75 2.5858 3.41421 2.25001 3 2.25001Z" fill="#79819A"/>
</g>
</svg>
