<svg width="54" height="56" viewBox="0 0 54 60" fill="none" xmlns="http://www.w3.org/2000/svg">
<path d="M51.4453 37.7547L53.4175 38.5659C53.7557 37.7434 53.5481 36.7974 52.8964 36.1922C52.2448 35.587 51.286 35.4498 50.4907 35.8479L51.4453 37.7547ZM22.6491 2.60187L24.37 3.86124C24.8937 3.14565 24.9199 2.18065 24.4358 1.43771C23.9517 0.694758 23.0583 0.328931 22.1922 0.518953L22.6491 2.60187ZM41.2327 38.0305C29.6594 38.0305 20.218 28.4835 20.218 16.6328L15.9531 16.6328C15.9531 30.7727 27.2383 42.2954 41.2327 42.2954L41.2327 38.0305ZM50.4907 35.8479C47.6991 37.2453 44.5585 38.0305 41.2327 38.0305L41.2327 42.2954C45.2381 42.2954 49.0308 41.3482 52.3999 39.6616L50.4907 35.8479ZM49.4732 36.9436C45.9554 45.4963 37.6629 51.4723 28.0269 51.4723L28.0269 55.7372C39.4835 55.7372 49.2777 48.631 53.4175 38.5659L49.4732 36.9436ZM28.0269 51.4723C15.225 51.4723 4.78754 40.9128 4.78754 27.813L0.522639 27.813C0.522638 43.202 12.8039 55.7372 28.0269 55.7372L28.0269 51.4723ZM4.78754 27.813C4.78754 16.4439 12.6572 6.97715 23.1061 4.68478L22.1922 0.518953C9.78228 3.24153 0.52264 14.445 0.522639 27.813L4.78754 27.813ZM20.218 16.6328C20.218 11.84 21.763 7.42357 24.37 3.86124L20.9283 1.34249C17.8013 5.61536 15.9531 10.9094 15.9531 16.6328L20.218 16.6328Z" fill="#EDF2F4"/>
</svg>
