<svg width="512" height="512" viewBox="0 0 48 48" xmlns="http://www.w3.org/2000/svg">
    <path fill="none" stroke="#bbbbbb" stroke-linecap="round" stroke-linejoin="round" stroke-width="4" d="M4.189 22.173A2 2 0 0 1 6.181 20H10a2 2 0 0 1 2 2v19a2 2 0 0 1-2 2H7.834a2 2 0 0 1-1.993-1.827l-1.652-19ZM18 21.375c0-.836.52-1.584 1.275-1.94c1.649-.778 4.458-2.341 5.725-4.454c1.633-2.724 1.941-7.645 1.991-8.772c.007-.158.003-.316.024-.472c.271-1.953 4.04.328 5.485 2.74c.785 1.308.885 3.027.803 4.37c-.089 1.436-.51 2.823-.923 4.201l-.88 2.937h10.857a2 2 0 0 1 1.925 2.543l-5.37 19.016A2 2 0 0 1 36.986 43H20a2 2 0 0 1-2-2V21.375Z"/>
</svg>