<svg width="56" height="56" viewBox="0 0 56 56" fill="none" xmlns="http://www.w3.org/2000/svg">
<g id="Sun">
<path id="Squircle" d="M14.2649 28.0495C14.2019 33.8716 15.1762 37.0614 17.0093 38.8944C18.8491 40.7342 22.0792 41.7351 27.9737 41.7351C33.8673 41.7351 37.0618 40.7344 38.8849 38.8993C40.7114 37.061 41.6823 33.8629 41.6823 28.0264C41.6823 22.19 40.7114 18.9919 38.8849 17.1536C37.0618 15.3185 33.8673 14.3178 27.9737 14.3178C22.0808 14.3178 18.9221 15.3183 17.1155 17.1486C15.2957 18.9924 14.3283 22.1986 14.2649 28.0495Z" stroke="#8D99AE" stroke-width="4.2649" stroke-linecap="round" stroke-linejoin="round"/>
<path id="Vector 65" d="M27.9735 2.28473V6.24499" stroke="#8D99AE" stroke-width="4.2649" stroke-linecap="round"/>
<path id="Vector 66" d="M27.9735 49.808V53.7682" stroke="#8D99AE" stroke-width="4.2649" stroke-linecap="round"/>
<path id="Vector 67" d="M53.7153 28.0265L49.755 28.0265" stroke="#8D99AE" stroke-width="4.2649" stroke-linecap="round"/>
<path id="Vector 68" d="M6.19205 28.0265L2.23178 28.0265" stroke="#8D99AE" stroke-width="4.2649" stroke-linecap="round"/>
<path id="Vector 69" d="M8.17224 8.22517L10.9726 11.0255" stroke="#8D99AE" stroke-width="4.2649" stroke-linecap="round"/>
<path id="Vector 71" d="M8.17224 48.6477L10.9726 45.8474" stroke="#8D99AE" stroke-width="4.2649" stroke-linecap="round"/>
<path id="Vector 70" d="M48.5948 8.22517L45.7944 11.0255" stroke="#8D99AE" stroke-width="4.2649" stroke-linecap="round"/>
<path id="Vector 72" d="M48.5948 48.6477L45.7944 45.8474" stroke="#8D99AE" stroke-width="4.2649" stroke-linecap="round"/>
</g>
</svg>
